<?xml version="1.0" encoding="iso-8859-1"?>
<!-- Uploaded to: SVG Repo, www.svgrepo.com, Generator: SVG Repo Mixer Tools -->
<svg height="800px" width="800px" version="1.1" id="Layer_1" xmlns="http://www.w3.org/2000/svg" xmlns:xlink="http://www.w3.org/1999/xlink" 
	 viewBox="0 0 512 512" xml:space="preserve">
<path style="fill:#F4DA84;" d="M503.916,158.989V353.01c0,23.812-19.304,43.116-43.116,43.116h-97.011
	c-23.812,0-43.116-19.304-43.116-43.116c0,23.812-19.304,43.116-43.116,43.116H51.2c-23.812,0-43.116-19.304-43.116-43.116V158.989
	c0-23.812,19.304-43.116,43.116-43.116h226.358c23.812,0,43.116,19.304,43.116,43.116c0-23.812,19.304-43.116,43.116-43.116H460.8
	C484.612,115.874,503.916,135.178,503.916,158.989z"/>
<path style="fill:#FFEE92;" d="M503.916,158.989V353.01c0,23.812-19.304,43.116-43.116,43.116h-97.011
	c-23.812,0-43.116-19.304-43.116-43.116V158.989c0-23.812,19.304-43.116,43.116-43.116H460.8
	C484.612,115.874,503.916,135.178,503.916,158.989z"/>
<path style="fill:#FF8D40;" d="M503.916,158.989v32.337H8.084v-32.337c0-23.812,19.304-43.116,43.116-43.116h226.358
	c23.812,0,43.116,19.304,43.116,43.116c0-23.812,19.304-43.116,43.116-43.116H460.8
	C484.612,115.874,503.916,135.178,503.916,158.989z"/>
<path style="fill:#FFA669;" d="M503.916,158.989v32.337H320.674v-32.337c0-23.812,19.304-43.116,43.116-43.116H460.8
	C484.612,115.874,503.916,135.178,503.916,158.989z"/>
<path d="M328.758,245.221V256c0,4.466-3.618,8.084-8.084,8.084s-8.084-3.618-8.084-8.084v-10.779c0-4.466,3.618-8.084,8.084-8.084
	S328.758,240.755,328.758,245.221z M212.884,301.811H51.2c-4.466,0-8.084,3.618-8.084,8.084s3.618,8.084,8.084,8.084h161.684
	c4.466,0,8.084-3.618,8.084-8.084S217.35,301.811,212.884,301.811z M320.674,280.253c-4.466,0-8.084,3.618-8.084,8.084v10.779
	c0,4.466,3.618,8.084,8.084,8.084s8.084-3.618,8.084-8.084v-10.779C328.758,283.871,325.139,280.253,320.674,280.253z
	 M158.989,334.147H51.2c-4.466,0-8.084,3.618-8.084,8.084s3.618,8.084,8.084,8.084h107.789c4.466,0,8.084-3.618,8.084-8.084
	S163.455,334.147,158.989,334.147z M512,158.989V353.01c0,28.231-22.969,51.2-51.2,51.2h-97.011
	c-18.081,0-34.003-9.422-43.116-23.612c-9.113,14.19-25.035,23.612-43.116,23.612H51.2c-28.231,0-51.2-22.969-51.2-51.2V158.989
	c0-28.231,22.969-51.2,51.2-51.2h226.358c18.081,0,34.003,9.422,43.116,23.612c9.113-14.19,25.035-23.612,43.116-23.612H460.8
	C489.031,107.789,512,130.758,512,158.989z M495.832,158.989c0-19.317-15.715-35.032-35.032-35.032h-97.011
	c-19.317,0-35.032,15.715-35.032,35.032v24.253h142.821c4.466,0,8.084,3.618,8.084,8.084s-3.618,8.084-8.084,8.084H328.758v13.474
	c0,4.466-3.618,8.084-8.084,8.084s-8.084-3.618-8.084-8.084v-53.895c0-19.317-15.715-35.032-35.032-35.032H51.2
	c-19.317,0-35.032,15.715-35.032,35.032v24.253h272.168c4.466,0,8.084,3.618,8.084,8.084s-3.618,8.084-8.084,8.084H16.168v153.6
	c0,19.317,15.715,35.032,35.032,35.032h226.358c19.317,0,35.032-15.715,35.032-35.032v-21.558c0-4.466,3.618-8.084,8.084-8.084
	s8.084,3.618,8.084,8.084v21.558c0,19.317,15.715,35.032,35.032,35.032H460.8c19.317,0,35.032-15.715,35.032-35.032V158.989z
	 M406.905,150.905h-43.116c-4.466,0-8.084,3.618-8.084,8.084c0,4.466,3.618,8.084,8.084,8.084h43.116
	c4.466,0,8.084-3.618,8.084-8.084C414.989,154.524,411.371,150.905,406.905,150.905z M158.989,150.905H51.2
	c-4.466,0-8.084,3.618-8.084,8.084c0,4.466,3.618,8.084,8.084,8.084h107.789c4.466,0,8.084-3.618,8.084-8.084
	C167.074,154.524,163.455,150.905,158.989,150.905z M463.495,312.589c-4.466,0-8.084,3.618-8.084,8.084v21.558
	c0,4.466,3.618,8.084,8.084,8.084s8.084-3.618,8.084-8.084v-21.558C471.579,316.208,467.96,312.589,463.495,312.589z
	 M441.937,312.589c-4.466,0-8.084,3.618-8.084,8.084v21.558c0,4.466,3.618,8.084,8.084,8.084s8.084-3.618,8.084-8.084v-21.558
	C450.021,316.208,446.403,312.589,441.937,312.589z M361.095,312.589c-4.466,0-8.084,3.618-8.084,8.084v21.558
	c0,4.466,3.618,8.084,8.084,8.084s8.084-3.618,8.084-8.084v-21.558C369.179,316.208,365.56,312.589,361.095,312.589z
	 M388.042,312.589c-4.466,0-8.084,3.618-8.084,8.084v21.558c0,4.466,3.618,8.084,8.084,8.084s8.084-3.618,8.084-8.084v-21.558
	C396.126,316.208,392.508,312.589,388.042,312.589z M409.6,312.589c-4.466,0-8.084,3.618-8.084,8.084v21.558
	c0,4.466,3.618,8.084,8.084,8.084s8.084-3.618,8.084-8.084v-21.558C417.684,316.208,414.066,312.589,409.6,312.589z"/>
</svg>